PathFileType	4	(x/y/z)	S01_M20_T09.trc
DataRate	CameraRate	NumFrames	NumMarkers	Units	OrigDataRate	OrigDataStartFrame	OrigNumFrames
240	240	6	51	mm	240	354	471
Frame#	Time	Sternum			R.Acromium			L.Acromium			Top.Head			R.ASIS			L.ASIS			R.PSIS			L.PSIS			R.Great.Tro			L.Great.Tro			R.Iliac.Crest			L.Iliac.Crest			V.Sacral			R.Thigh.Upper.Post			R.Thigh.Lower.Ant			R.Thigh.Lower.Post			R.Thigh.Upper.Ant			R.Knee.Lat			R.Knee.Med			R.Shank.Upper.Post			R.Shank.Lower.Ant			R.Shank.Lower.Post			R.Shank.Upper.Ant			R.Ankle.Lat			R.Ankle.Med			R.Heel.Upper			R.Heel.Med			R.Heel.Lat			R.Toe.Lat			R.Toe.Med			R.Toe.Tip			L.Thigh.Upper.Post			L.Thigh.Lower.Ant			L.Thigh.Lower.Post			L.Thigh.Upper.Ant			L.Knee.Lat			L.Knee.Med			L.Shank.Upper.Post			L.Shank.Lower.Ant			L.Shank.Lower.Post			L.Shank.Upper.Ant			L.Ankle.Lat			L.Ankle.Med			L.Heel.Upper			L.Heel.Med			L.Heel.Lat			L.Toe.Lat			L.Toe.Med			L.Toe.Tip			Cervical.Spine			Back			
		X1	Y1	Z1	X2	Y2	Z2	X3	Y3	Z3	X4	Y4	Z4	X5	Y5	Z5	X6	Y6	Z6	X7	Y7	Z7	X8	Y8	Z8	X9	Y9	Z9	X10	Y10	Z10	X11	Y11	Z11	X12	Y12	Z12	X13	Y13	Z13	X14	Y14	Z14	X15	Y15	Z15	X16	Y16	Z16	X17	Y17	Z17	X18	Y18	Z18	X19	Y19	Z19	X20	Y20	Z20	X21	Y21	Z21	X22	Y22	Z22	X23	Y23	Z23	X24	Y24	Z24	X25	Y25	Z25	X26	Y26	Z26	X27	Y27	Z27	X28	Y28	Z28	X29	Y29	Z29	X30	Y30	Z30	X31	Y31	Z31	X32	Y32	Z32	X33	Y33	Z33	X34	Y34	Z34	X35	Y35	Z35	X36	Y36	Z36	X37	Y37	Z37	X38	Y38	Z38	X39	Y39	Z39	X40	Y40	Z40	X41	Y41	Z41	X42	Y42	Z42	X43	Y43	Z43	X44	Y44	Z44	X45	Y45	Z45	X46	Y46	Z46	X47	Y47	Z47	X48	Y48	Z48	X49	Y49	Z49	X50	Y50	Z50	X51	Y51	Z51	

354	1.4708	620.35	1307.1	245.54	492.74	1559.1	406.5	488.29	1560.3	76.747	518.21	1872.1	218.52	569.02	1052.3	408.23	582.74	1046.5	141.72	337.11	1087.1	306.54	337.99	1086.3	202.34	491.53	999.03	489.75	480.87	995.01	61.601	478	1154.6	464.79	473.47	1122.3	60.591	323.93	1050.1	251.32	579.96	699.54	486.05	670.24	653.3	469.76	611.14	616.69	469.55	641.67	738.63	483.61	637.61	562.33	469.19	663.35	562	323.08	519.82	443.95	468.93	546.72	341.56	435.6	488.66	382.23	453.9	574.73	406.8	457.13	408.26	195.8	407.23	460.23	185.93	325.16	347.52	194.31	332.39	356.08	161.13	304.83	337.08	162.66	366.82	484.71	74.015	461.87	543.11	67.138	351.88	595.37	62.566	419.65	446.85	710.17	94.976	531.17	638.94	98.456	456.01	621.42	115.56	513.35	729.92	75.582	503.77	534.77	111.86	526.18	542.45	251.84	441.53	395.72	99.01	499.51	305.05	127.21	439.55	317.87	107.21	502.32	381.45	115.6	419.1	106.83	152.19	445.66	119.37	247.99	348.14	78.134	200.74	358.66	53.793	235.01	355.96	50.739	172.78	565.27	39.502	135.85	592.68	47.872	256.94	655.35	55.535	204.98	403.68	1612.6	242.89	321.97	1301.6	264.83
355	1.475	625.16	1307	245.41	497.5	1558.9	406.47	493.22	1560.4	76.713	522.88	1872.1	218.76	573.96	1052.4	407.98	587.32	1046.3	141.49	341.95	1087.1	306.74	342.58	1086.4	202.51	496.76	999.26	489.78	485.13	994.93	61.596	483.1	1154.7	464.64	478.13	1122.1	60.507	328.65	1050.2	251.54	586.75	700.16	485.77	677.23	654.48	469.02	618.35	617.52	469.09	648.21	739.62	483.05	645.19	563.33	468.6	670.34	563.14	322.44	529.43	442.74	468.72	558.37	340.79	435.67	499.53	380.38	453.9	585.06	406.64	457.03	422.97	191.99	407.71	475.23	182.98	325.68	362.22	188.74	332.81	371.65	155.6	305.51	352.57	157	367.44	502.27	72.386	462.94	560.91	66.345	352.97	613.22	63.339	420.8	449.23	710.55	95.016	533.09	638.75	98.395	457.81	621.72	115.5	515.85	729.9	75.567	504.91	534.67	111.71	527.46	542.17	251.73	442.3	395.73	98.907	500.04	304.93	127.15	440.1	317.88	107.14	503.06	381.3	115.51	419.13	106.9	152.27	445.68	119.37	248.07	348.2	78.173	200.84	358.72	53.806	235.09	355.98	50.79	172.85	565.28	39.497	135.84	592.7	47.798	256.94	655.36	55.454	204.97	408.54	1612.6	242.84	326.8	1301.5	264.66
356	1.4792	629.96	1306.8	245.29	502.28	1558.7	406.44	498.15	1560.4	76.684	527.56	1872	219.02	578.89	1052.3	407.75	591.89	1046.1	141.28	346.78	1087.1	306.95	347.15	1086.4	202.7	501.96	999.42	489.82	489.39	994.82	61.6	488.19	1154.7	464.51	482.8	1122	60.442	333.35	1050.2	251.76	593.47	700.7	485.47	684.13	655.58	468.28	625.48	618.27	468.6	654.67	740.51	482.48	652.7	564.27	468	677.3	564.21	321.79	539.03	441.5	468.49	570	340.03	435.75	510.42	378.52	453.9	595.36	406.47	456.91	437.74	188.26	408.2	490.26	180.09	326.21	377.02	183.23	333.26	387.31	150.14	306.22	368.18	151.43	368.07	519.83	70.901	464.04	578.69	65.68	354.08	631.01	64.245	421.96	451.64	710.9	95.052	535.04	638.56	98.344	459.64	621.99	115.45	518.37	729.85	75.561	506.08	534.55	111.55	528.75	541.87	251.63	443.1	395.73	98.809	500.59	304.81	127.09	440.66	317.87	107.07	503.83	381.14	115.43	419.16	106.97	152.35	445.71	119.36	248.14	348.25	78.207	200.93	358.77	53.818	235.16	356	50.839	172.91	565.3	39.493	135.84	592.72	47.726	256.94	655.37	55.373	204.96	413.41	1612.5	242.81	331.63	1301.5	264.52
357	1.4833	634.76	1306.6	245.17	507.09	1558.5	406.42	503.07	1560.3	76.662	532.26	1871.9	219.3	583.81	1052.2	407.54	596.47	1045.8	141.09	351.6	1087	307.17	351.72	1086.5	202.9	507.14	999.51	489.87	493.65	994.68	61.613	493.27	1154.7	464.4	487.46	1121.8	60.396	338.04	1050.2	252	600.11	701.17	485.15	690.94	656.59	467.53	632.53	618.94	468.08	661.06	741.32	481.91	660.14	565.14	467.37	684.21	565.21	321.11	548.62	440.23	468.25	581.63	339.29	435.82	521.31	376.67	453.89	605.63	406.3	456.78	452.57	184.6	408.69	505.33	177.28	326.75	391.92	177.8	333.72	403.08	144.79	306.95	383.88	145.96	368.73	537.38	69.562	465.16	596.43	65.148	355.21	648.73	65.287	423.13	454.07	711.23	95.083	537.01	638.35	98.301	461.5	622.25	115.39	520.91	729.8	75.562	507.28	534.43	111.4	530.05	541.56	251.54	443.92	395.73	98.714	501.16	304.67	127.04	441.24	317.86	107	504.62	380.98	115.35	419.19	107.03	152.44	445.77	119.36	248.22	348.3	78.238	201.03	358.82	53.829	235.23	356.02	50.887	172.98	565.31	39.488	135.84	592.74	47.655	256.94	655.37	55.295	204.95	418.3	1612.4	242.79	336.44	1301.4	264.4
358	1.4875	639.55	1306.3	245.05	511.92	1558.2	406.41	508	1560.2	76.646	536.97	1871.7	219.59	588.73	1052.1	407.35	601.05	1045.5	140.92	356.41	1086.8	307.4	356.3	1086.4	203.12	512.3	999.52	489.93	497.9	994.51	61.634	498.34	1154.6	464.29	492.11	1121.5	60.367	342.73	1050.1	252.25	606.68	701.55	484.81	697.68	657.52	466.77	639.49	619.54	467.54	667.38	742.05	481.34	667.51	565.95	466.72	691.09	566.15	320.43	558.2	438.94	468	593.24	338.56	435.88	532.21	374.81	453.88	615.87	406.11	456.63	467.44	181.04	409.2	520.42	174.56	327.3	406.9	172.46	334.2	418.93	139.55	307.7	399.67	140.61	369.4	554.92	68.371	466.27	614.13	64.752	356.34	666.38	66.463	424.3	456.52	711.53	95.108	539	638.13	98.266	463.39	622.49	115.33	523.48	729.72	75.567	508.51	534.3	111.24	531.37	541.24	251.46	444.75	395.73	98.622	501.75	304.53	127	441.84	317.85	106.93	505.43	380.8	115.27	419.22	107.09	152.53	445.85	119.35	248.31	348.34	78.266	201.12	358.87	53.84	235.3	356.04	50.934	173.04	565.32	39.483	135.83	592.77	47.587	256.94	655.38	55.218	204.94	423.19	1612.2	242.78	341.25	1301.2	264.3
359	1.4917	644.35	1305.9	244.94	516.78	1557.8	406.4	512.92	1560	76.636	541.71	1871.5	219.89	593.63	1051.9	407.18	605.63	1045.1	140.75	361.21	1086.6	307.65	360.86	1086.3	203.36	517.43	999.46	490	502.16	994.32	61.662	503.4	1154.5	464.2	496.74	1121.2	60.354	347.4	1049.9	252.5	613.18	701.86	484.46	704.34	658.37	466	646.38	620.06	466.98	673.63	742.69	480.77	674.81	566.69	466.05	697.93	567.02	319.72	567.79	437.63	467.76	604.84	337.86	435.94	543.12	372.96	453.86	626.07	405.91	456.46	482.35	177.56	409.72	535.53	171.93	327.84	421.96	167.22	334.71	434.86	134.43	308.46	415.54	135.37	370.09	572.44	67.329	467.39	631.78	64.495	357.46	683.95	67.774	425.44	458.99	711.81	95.126	541.02	637.89	98.237	465.3	622.71	115.26	526.07	729.64	75.576	509.76	534.16	111.09	532.7	540.91	251.38	445.6	395.72	98.532	502.35	304.39	126.95	442.44	317.83	106.86	506.25	380.62	115.19	419.26	107.14	152.62	445.95	119.35	248.4	348.38	78.292	201.21	358.92	53.851	235.36	356.06	50.982	173.1	565.33	39.478	135.83	592.79	47.52	256.94	655.38	55.144	204.93	428.09	1612	242.78	346.06	1301	264.24
